<svg xmlns="http://www.w3.org/2000/svg" viewBox="0 0 1024 1024" width="1024" height="1024">
<defs><radialGradient id="bg" cx="72%" cy="6%" r="125%"><stop offset="0" stop-color="#0d3b46"></stop><stop offset="42%" stop-color="#141a3a"></stop><stop offset="100%" stop-color="#2a1145"></stop></radialGradient><radialGradient id="hC"><stop offset="0" stop-color="#00ddff" stop-opacity="0.8"></stop><stop offset=".4" stop-color="#00ddff" stop-opacity="0.40"></stop><stop offset="1" stop-color="#00ddff" stop-opacity="0"></stop></radialGradient><radialGradient id="hG"><stop offset="0" stop-color="#fcba03" stop-opacity="0.8"></stop><stop offset=".4" stop-color="#fcba03" stop-opacity="0.40"></stop><stop offset="1" stop-color="#fcba03" stop-opacity="0"></stop></radialGradient><radialGradient id="hR"><stop offset="0" stop-color="#ff3c00" stop-opacity="0.85"></stop><stop offset=".4" stop-color="#ff3c00" stop-opacity="0.42"></stop><stop offset="1" stop-color="#ff3c00" stop-opacity="0"></stop></radialGradient><linearGradient id="ce0" gradientUnits="userSpaceOnUse" x1="421.93" y1="564" x2="331.87" y2="616"><stop offset="0" stop-color="#00ddff"></stop><stop offset=".5" stop-color="#00ddff"></stop><stop offset="1" stop-color="#ffffff"></stop></linearGradient><linearGradient id="ce1" gradientUnits="userSpaceOnUse" x1="421.93" y1="460" x2="421.93" y2="564"><stop offset="0" stop-color="#ffffff"></stop><stop offset=".5" stop-color="#00ddff"></stop><stop offset="1" stop-color="#00ddff"></stop></linearGradient><linearGradient id="ce2" gradientUnits="userSpaceOnUse" x1="602.07" y1="564" x2="512" y2="616"><stop offset="0" stop-color="#fcba03"></stop><stop offset="1" stop-color="#ff3c00"></stop></linearGradient><linearGradient id="ce3" gradientUnits="userSpaceOnUse" x1="512" y1="616" x2="421.93" y2="564"><stop offset="0" stop-color="#ff3c00"></stop><stop offset="1" stop-color="#00ddff"></stop></linearGradient><linearGradient id="ce4" gradientUnits="userSpaceOnUse" x1="602.07" y1="460" x2="602.07" y2="564"><stop offset="0" stop-color="#ffffff"></stop><stop offset=".5" stop-color="#fcba03"></stop><stop offset="1" stop-color="#fcba03"></stop></linearGradient><linearGradient id="ce5" gradientUnits="userSpaceOnUse" x1="692.13" y1="616" x2="602.07" y2="564"><stop offset="0" stop-color="#ffffff"></stop><stop offset=".5" stop-color="#fcba03"></stop><stop offset="1" stop-color="#fcba03"></stop></linearGradient><linearGradient id="ce6" gradientUnits="userSpaceOnUse" x1="512" y1="616" x2="512" y2="720"><stop offset="0" stop-color="#ff3c00"></stop><stop offset=".5" stop-color="#ff3c00"></stop><stop offset="1" stop-color="#ffffff"></stop></linearGradient><linearGradient id="ce7" gradientUnits="userSpaceOnUse" x1="421.93" y1="564" x2="602.07" y2="564"><stop offset="0" stop-color="#00ddff"></stop><stop offset="1" stop-color="#fcba03"></stop></linearGradient>
<filter id="soft" x="-50%" y="-50%" width="200%" height="200%"><feGaussianBlur stdDeviation="4.3"></feGaussianBlur></filter></defs>
<rect width="1024" height="1024" fill="url(#bg)"></rect>
<g filter="url(#soft)">
    <circle cx="421.93" cy="564" r="98.8" fill="url(#hC)"></circle>
    <circle cx="602.07" cy="564" r="98.8" fill="url(#hG)"></circle>
    <circle cx="512" cy="616" r="98.8" fill="url(#hR)"></circle></g>
<path d="M602.07 252L512 304M512 304L421.93 252M421.93 252L421.93 148M421.93 148L512 96M512 96L602.07 148M602.07 148L602.07 252M331.87 408L241.8 460M241.8 460L151.73 408M151.73 408L151.73 304M151.73 304L241.8 252M241.8 252L331.87 304M331.87 304L331.87 408M512 408L421.93 460M421.93 460L331.87 408M331.87 304L421.93 252M512 304L512 408M692.13 408L602.07 460M602.07 460L512 408M602.07 252L692.13 304M692.13 304L692.13 408M872.27 408L782.2 460M782.2 460L692.13 408M692.13 304L782.2 252M782.2 252L872.27 304M872.27 304L872.27 408M331.87 616L241.8 564M241.8 564L241.8 460M782.2 564L692.13 616M782.2 460L782.2 564M331.87 720L241.8 772M241.8 772L151.73 720M151.73 720L151.73 616M151.73 616L241.8 564M331.87 616L331.87 720M512 720L421.93 772M421.93 772L331.87 720M692.13 720L602.07 772M602.07 772L512 720M692.13 616L692.13 720M872.27 720L782.2 772M782.2 772L692.13 720M782.2 564L872.27 616M872.27 616L872.27 720M602.07 876L512 928M512 928L421.93 876M421.93 876L421.93 772M602.07 772L602.07 876" fill="none" stroke="#ffffff" stroke-width="15.6" stroke-linecap="round" stroke-linejoin="round"></path>
<path d="M512.00 96.00L512.00 44.52M512.00 928.00L512.00 979.48" fill="none" stroke="#ffffff" stroke-width="15.6" stroke-linecap="round"></path>
<circle cx="512.00" cy="44.52" r="12.84" fill="#ffffff"></circle><circle cx="512.00" cy="979.48" r="12.84" fill="#ffffff"></circle>
<path d="M421.93 564L331.87 616" stroke="url(#ce0)" stroke-width="15.6" stroke-linecap="round" fill="none"></path><path d="M421.93 460L421.93 564" stroke="url(#ce1)" stroke-width="15.6" stroke-linecap="round" fill="none"></path><path d="M602.07 564L512 616" stroke="url(#ce2)" stroke-width="15.6" stroke-linecap="round" fill="none"></path><path d="M512 616L421.93 564" stroke="url(#ce3)" stroke-width="15.6" stroke-linecap="round" fill="none"></path><path d="M602.07 460L602.07 564" stroke="url(#ce4)" stroke-width="15.6" stroke-linecap="round" fill="none"></path><path d="M692.13 616L602.07 564" stroke="url(#ce5)" stroke-width="15.6" stroke-linecap="round" fill="none"></path><path d="M512 616L512 720" stroke="url(#ce6)" stroke-width="15.6" stroke-linecap="round" fill="none"></path><path d="M421.93 564L602.07 564" stroke="url(#ce7)" stroke-width="15.6" stroke-linecap="round" fill="none"></path>
<line x1="421.93" y1="564.00" x2="421.93" y2="564" stroke="#00ddff" stroke-width="15.6" stroke-linecap="round"></line><circle cx="370.81" cy="528.21" r="14.00" fill="#00ddff"></circle>
<path d="M618.54 252.00L610.30 266.26L593.84 266.26L585.60 252.00L593.84 237.74L610.30 237.74ZM528.47 304.00L520.23 318.26L503.77 318.26L495.53 304.00L503.77 289.74L520.23 289.74ZM438.40 252.00L430.16 266.26L413.70 266.26L405.46 252.00L413.70 237.74L430.16 237.74ZM438.40 148.00L430.16 162.26L413.70 162.26L405.46 148.00L413.70 133.74L430.16 133.74ZM528.47 96.00L520.23 110.26L503.77 110.26L495.53 96.00L503.77 81.74L520.23 81.74ZM618.54 148.00L610.30 162.26L593.84 162.26L585.60 148.00L593.84 133.74L610.30 133.74ZM348.34 408.00L340.10 422.26L323.64 422.26L315.40 408.00L323.64 393.74L340.10 393.74ZM258.27 460.00L250.03 474.26L233.57 474.26L225.33 460.00L233.57 445.74L250.03 445.74ZM168.20 408.00L159.96 422.26L143.50 422.26L135.26 408.00L143.50 393.74L159.96 393.74ZM168.20 304.00L159.96 318.26L143.50 318.26L135.26 304.00L143.50 289.74L159.96 289.74ZM258.27 252.00L250.03 266.26L233.57 266.26L225.33 252.00L233.57 237.74L250.03 237.74ZM348.34 304.00L340.10 318.26L323.64 318.26L315.40 304.00L323.64 289.74L340.10 289.74ZM528.47 408.00L520.23 422.26L503.77 422.26L495.53 408.00L503.77 393.74L520.23 393.74ZM438.40 460.00L430.16 474.26L413.70 474.26L405.46 460.00L413.70 445.74L430.16 445.74ZM708.60 408.00L700.36 422.26L683.90 422.26L675.66 408.00L683.90 393.74L700.36 393.74ZM618.54 460.00L610.30 474.26L593.84 474.26L585.60 460.00L593.84 445.74L610.30 445.74ZM708.60 304.00L700.36 318.26L683.90 318.26L675.66 304.00L683.90 289.74L700.36 289.74ZM888.74 408.00L880.50 422.26L864.04 422.26L855.80 408.00L864.04 393.74L880.50 393.74ZM798.67 460.00L790.43 474.26L773.97 474.26L765.73 460.00L773.97 445.74L790.43 445.74ZM798.67 252.00L790.43 266.26L773.97 266.26L765.73 252.00L773.97 237.74L790.43 237.74ZM888.74 304.00L880.50 318.26L864.04 318.26L855.80 304.00L864.04 289.74L880.50 289.74ZM348.34 616.00L340.10 630.26L323.64 630.26L315.40 616.00L323.64 601.74L340.10 601.74ZM258.27 564.00L250.03 578.26L233.57 578.26L225.33 564.00L233.57 549.74L250.03 549.74ZM798.67 564.00L790.43 578.26L773.97 578.26L765.73 564.00L773.97 549.74L790.43 549.74ZM708.60 616.00L700.36 630.26L683.90 630.26L675.66 616.00L683.90 601.74L700.36 601.74ZM348.34 720.00L340.10 734.26L323.64 734.26L315.40 720.00L323.64 705.74L340.10 705.74ZM258.27 772.00L250.03 786.26L233.57 786.26L225.33 772.00L233.57 757.74L250.03 757.74ZM168.20 720.00L159.96 734.26L143.50 734.26L135.26 720.00L143.50 705.74L159.96 705.74ZM168.20 616.00L159.96 630.26L143.50 630.26L135.26 616.00L143.50 601.74L159.96 601.74ZM528.47 720.00L520.23 734.26L503.77 734.26L495.53 720.00L503.77 705.74L520.23 705.74ZM438.40 772.00L430.16 786.26L413.70 786.26L405.46 772.00L413.70 757.74L430.16 757.74ZM708.60 720.00L700.36 734.26L683.90 734.26L675.66 720.00L683.90 705.74L700.36 705.74ZM618.54 772.00L610.30 786.26L593.84 786.26L585.60 772.00L593.84 757.74L610.30 757.74ZM888.74 720.00L880.50 734.26L864.04 734.26L855.80 720.00L864.04 705.74L880.50 705.74ZM798.67 772.00L790.43 786.26L773.97 786.26L765.73 772.00L773.97 757.74L790.43 757.74ZM888.74 616.00L880.50 630.26L864.04 630.26L855.80 616.00L864.04 601.74L880.50 601.74ZM618.54 876.00L610.30 890.26L593.84 890.26L585.60 876.00L593.84 861.74L610.30 861.74ZM528.47 928.00L520.23 942.26L503.77 942.26L495.53 928.00L503.77 913.74L520.23 913.74ZM438.40 876.00L430.16 890.26L413.70 890.26L405.46 876.00L413.70 861.74L430.16 861.74Z" fill="#ffffff"></path>
<path d="M442.51 564.00L432.22 581.83L411.64 581.83L401.35 564.00L411.64 546.17L432.22 546.17Z" fill="#00ddff"></path><path d="M622.65 564.00L612.36 581.83L591.78 581.83L581.49 564.00L591.78 546.17L612.36 546.17Z" fill="#fcba03"></path><path d="M532.58 616.00L522.29 633.83L501.71 633.83L491.42 616.00L501.71 598.17L522.29 598.17Z" fill="#ff3c00"></path>
</svg>